<svg xmlns="http://www.w3.org/2000/svg" version="1.1" xmlnsXlink="http://www.w3.org/1999/xlink" xmlnsSvgjs="http://svgjs.com/svgjs" width="512" height="512" x="0" y="0" viewBox="0 0 321 321.363" style="enable-background:new 0 0 512 512" xml:space="preserve"><g><path fill="#fdbd40" d="M58.941 26.75c-11.812-.012-21.386-9.586-21.398-21.398a5.349 5.349 0 1 0-10.7 0c-.011 11.812-9.585 21.386-21.398 21.398a5.35 5.35 0 1 0 0 10.7c11.813.01 21.387 9.585 21.399 21.398a5.35 5.35 0 1 0 10.699 0c.012-11.813 9.586-21.387 21.398-21.399a5.349 5.349 0 1 0 0-10.699zM32.195 41.145a32.22 32.22 0 0 0-9.047-9.043 32.285 32.285 0 0 0 9.047-9.047 32.22 32.22 0 0 0 9.043 9.047 32.206 32.206 0 0 0-9.043 9.043zm0 0" data-original="#fdbd40"></path><path fill="#aabece" d="M112.445 189.355v-77.003h42.797V80.25h-42.797V58.852h42.797V26.75h-42.797v-5.352c0-8.863-7.187-16.046-16.05-16.046s-16.051 7.183-16.051 16.046v167.957c-34.332 8.864-54.977 43.88-46.114 78.211 8.868 34.332 43.883 54.977 78.215 46.11 34.328-8.863 54.973-43.88 46.11-78.211a64.193 64.193 0 0 0-46.11-46.11zM96.395 294.25c-8.864 0-16.051-7.188-16.051-16.05s7.187-16.048 16.05-16.048 16.051 7.184 16.051 16.047-7.187 16.051-16.05 16.051zm0 0" data-original="#aabece"></path><path fill="#394d5c" d="M144.543 251.45h-10.7c-.023-20.673-16.777-37.427-37.448-37.45v-10.7c26.578.028 48.117 21.571 48.148 48.15zM63.95 232.727l-9.259-5.356a48.46 48.46 0 0 1 23.645-20.566l4.016 9.918a37.715 37.715 0 0 0-18.403 16.004zm0 0" data-original="#394d5c"></path><path d="M58.941 26.75c-11.812-.012-21.386-9.586-21.398-21.398a5.349 5.349 0 1 0-10.7 0c-.011 11.812-9.585 21.386-21.398 21.398a5.35 5.35 0 1 0 0 10.7c11.813.01 21.387 9.585 21.399 21.398a5.35 5.35 0 1 0 10.699 0c.012-11.813 9.586-21.387 21.398-21.399a5.349 5.349 0 1 0 0-10.699zM32.195 41.145a32.22 32.22 0 0 0-9.047-9.043 32.285 32.285 0 0 0 9.047-9.047 32.22 32.22 0 0 0 9.043 9.047 32.206 32.206 0 0 0-9.043 9.043zM160.594 64.2V21.397h-42.801C117.793 9.582 108.211 0 96.395 0c-11.82 0-21.403 9.582-21.403 21.398v163.938c-29.426 9.383-49.066 37.14-48.12 68.012 1.46 36.398 30.394 65.691 66.769 67.597.933.035 1.859.055 2.789.055 38.39 0 69.515-31.121 69.515-69.512 0-30.16-19.449-56.883-48.152-66.148V117.7h42.8V74.897h-42.8V64.2zm-10.7 21.402V107h-42.8v86.5l4.011 1.035c31.454 8.121 50.368 40.2 42.247 71.653-6.922 26.82-31.618 45.171-59.293 44.066-30.774-1.613-55.254-26.399-56.489-57.191-.84-27.442 17.504-51.774 44.11-58.528l4.015-1.035V21.398c0-5.906 4.79-10.699 10.7-10.699 5.91 0 10.699 4.793 10.699 10.7v10.703h42.8V53.5h-42.8v32.098h42.8zm0 0" fill="#000000" data-original="#000000"></path><path d="M96.395 256.8c-11.82 0-21.403 9.579-21.403 21.4 0 11.82 9.582 21.398 21.403 21.398 11.816 0 21.398-9.578 21.398-21.399-.012-11.812-9.586-21.387-21.398-21.398zm0 32.098c-5.91 0-10.7-4.789-10.7-10.699 0-5.906 4.79-10.699 10.7-10.699 5.91 0 10.699 4.793 10.699 10.7-.008 5.905-4.793 10.695-10.7 10.698zM96.395 214c20.671.023 37.425 16.777 37.449 37.45h10.699c-.031-26.579-21.57-48.122-48.148-48.15zM78.336 206.805A48.46 48.46 0 0 0 54.69 227.37l9.258 5.356a37.742 37.742 0 0 1 18.403-16.008zm0 0" fill="#000000" data-original="#000000"></path></g></svg>